<svg width="163" height="39" viewBox="0 0 163 39" fill="none" xmlns="http://www.w3.org/2000/svg">
<path d="M52.708 27.264C52.588 27.492 52.42 27.9 52.324 28.152C51.868 29.34 51.148 30.9 50.164 32.148C49.012 33.612 47.452 35.196 45.184 36.372L44.368 35.628C46.6 34.56 48.136 33.132 49.372 31.56C50.356 30.288 50.956 28.956 51.364 27.78C51.448 27.54 51.556 27.144 51.616 26.892L52.708 27.264ZM46.372 28.68C47.56 29.436 49.228 30.636 50.14 31.368C51.34 32.352 52.528 33.396 53.476 34.428L52.72 35.256C51.724 34.104 50.68 33.156 49.48 32.148C48.616 31.428 47.056 30.24 45.736 29.436L46.372 28.68ZM57.436 27.24C57.772 27.276 58.132 27.3 58.516 27.3C59.212 27.3 62.008 27.3 62.68 27.3C63.016 27.3 63.448 27.276 63.796 27.24V28.236C63.436 28.212 63.016 28.188 62.68 28.188C62.008 28.188 59.212 28.188 58.54 28.188C58.132 28.188 57.748 28.212 57.436 28.236V27.24ZM56.008 30.252C56.332 30.288 56.68 30.312 57.052 30.312C57.748 30.312 64.264 30.312 64.9 30.312C65.152 30.312 65.548 30.288 65.848 30.252V31.248C65.584 31.224 65.2 31.212 64.9 31.212C64.264 31.212 57.748 31.212 57.052 31.212C56.692 31.212 56.332 31.224 56.008 31.248V30.252ZM61.66 30.732C61.66 32.244 61.468 33.492 60.94 34.5C60.496 35.304 59.596 36.168 58.576 36.684L57.688 36.036C58.612 35.64 59.476 34.956 59.956 34.188C60.556 33.24 60.64 32.064 60.652 30.744L61.66 30.732ZM64.42 26.256C64.72 26.688 65.152 27.42 65.392 27.9L64.744 28.188C64.516 27.708 64.108 26.988 63.784 26.532L64.42 26.256ZM65.728 25.776C66.052 26.22 66.508 26.964 66.736 27.408L66.1 27.696C65.836 27.18 65.44 26.496 65.104 26.052L65.728 25.776ZM67.6083 32.916C69.1923 32.532 70.9563 31.692 71.9403 31.092C73.0683 30.408 74.1723 29.412 74.7963 28.656L75.5403 29.376C74.8443 30.12 73.5963 31.164 72.3483 31.92C71.3403 32.52 69.6723 33.312 68.0763 33.804L67.6083 32.916ZM71.8323 31.644L72.8283 31.392V35.892C72.8283 36.252 72.8403 36.756 72.8883 36.936H71.7723C71.7963 36.756 71.8323 36.252 71.8323 35.892V31.644ZM89.3283 27.9C89.2323 28.008 89.0883 28.188 89.0043 28.32C88.5243 29.136 87.3843 30.684 86.0163 31.632L85.2122 30.996C86.3283 30.36 87.4563 29.064 87.8403 28.32C87.0003 28.32 81.5763 28.32 81.0003 28.32C80.5563 28.32 80.1123 28.344 79.6443 28.38V27.3C80.0643 27.36 80.5563 27.408 81.0003 27.408C81.5763 27.408 87.1803 27.408 87.9003 27.408C88.1283 27.408 88.5603 27.372 88.7283 27.324L89.3283 27.9ZM84.5283 29.472C84.5283 32.724 84.2403 34.92 81.1803 36.456L80.3043 35.736C80.6283 35.628 81.0483 35.424 81.3843 35.196C83.2323 34.056 83.4963 32.352 83.4963 30.348C83.4963 30.06 83.4963 29.796 83.4483 29.472H84.5283ZM94.1883 34.944C94.1883 34.272 94.1883 28.968 94.1883 27.972C94.1883 27.624 94.1643 27.096 94.1043 26.712H95.2803C95.2323 27.084 95.1963 27.6 95.1963 27.972C95.1963 29.832 95.2083 34.38 95.2083 34.944C95.2083 35.328 95.2323 35.976 95.2803 36.372H94.1163C94.1763 35.988 94.1883 35.388 94.1883 34.944ZM94.9803 29.868C96.5643 30.324 98.9883 31.248 100.32 31.896L99.9003 32.916C98.5323 32.184 96.2883 31.332 94.9803 30.924V29.868ZM104.928 27.072C105.24 27.108 105.612 27.132 105.996 27.132C106.644 27.132 110.016 27.132 110.724 27.132C111.096 27.132 111.516 27.108 111.804 27.072V28.068C111.528 28.044 111.108 28.032 110.7 28.032C110.028 28.032 106.656 28.032 105.996 28.032C105.636 28.032 105.252 28.044 104.928 28.068V27.072ZM112.692 30.228C112.632 30.348 112.548 30.492 112.524 30.588C112.212 31.764 111.672 33.012 110.772 33.996C109.524 35.376 108.012 36.072 106.488 36.504L105.744 35.652C107.436 35.304 108.936 34.524 109.968 33.444C110.688 32.688 111.168 31.668 111.384 30.792C110.796 30.792 105.744 30.792 105.024 30.792C104.736 30.792 104.28 30.804 103.848 30.84V29.832C104.28 29.868 104.688 29.904 105.024 29.904C105.612 29.904 110.724 29.904 111.336 29.904C111.612 29.904 111.876 29.868 112.008 29.808L112.692 30.228ZM119.952 29.1C120.156 29.58 120.744 31.164 120.888 31.68L120 32.004C119.868 31.452 119.316 29.928 119.064 29.4L119.952 29.1ZM124.296 29.772C124.212 30.012 124.152 30.204 124.104 30.36C123.792 31.68 123.264 32.976 122.412 34.056C121.296 35.46 119.832 36.396 118.5 36.9L117.708 36.096C119.088 35.688 120.624 34.776 121.608 33.552C122.46 32.508 123.072 30.972 123.264 29.436L124.296 29.772ZM117.156 29.7C117.396 30.204 118.032 31.776 118.248 32.412L117.348 32.748C117.156 32.124 116.508 30.456 116.268 30.036L117.156 29.7ZM132.24 26.568C132.216 26.844 132.192 27.252 132.18 27.54C132.024 32.436 130.704 34.68 128.34 36.324L127.464 35.616C127.848 35.412 128.328 35.076 128.688 34.74C130.188 33.384 131.172 31.356 131.196 27.564C131.196 27.288 131.172 26.844 131.124 26.568H132.24ZM136.416 29.064C136.38 29.268 136.356 29.484 136.344 29.64C136.308 30.804 136.152 34.284 135.612 35.436C135.372 35.952 134.988 36.168 134.328 36.168C133.728 36.168 133.032 36.132 132.408 36.084L132.288 35.088C132.936 35.172 133.56 35.232 134.076 35.232C134.412 35.232 134.64 35.124 134.772 34.836C135.228 33.912 135.384 30.96 135.384 29.676H129.06C128.58 29.676 128.1 29.688 127.668 29.724V28.716C128.088 28.752 128.58 28.776 129.048 28.776H134.976C135.3 28.776 135.528 28.752 135.732 28.716L136.416 29.064ZM139.368 30.804C139.74 30.84 140.364 30.876 141.048 30.876C141.924 30.876 146.736 30.876 147.624 30.876C148.224 30.876 148.644 30.828 148.92 30.804V31.98C148.668 31.968 148.164 31.932 147.636 31.932C146.724 31.932 141.936 31.932 141.048 31.932C140.388 31.932 139.752 31.956 139.368 31.98V30.804Z" fill="#FFFFFA"/>
<path d="M43.4347 4.45455H46.6591L50.9773 14.9943H51.1477L55.4659 4.45455H58.6903V19H56.1619V9.0071H56.027L52.0071 18.9574H50.1179L46.098 8.9858H45.9631V19H43.4347V4.45455ZM61.446 19V8.09091H64.017V19H61.446ZM62.7386 6.54261C62.3314 6.54261 61.9811 6.40767 61.6875 6.13778C61.3939 5.86316 61.2472 5.53409 61.2472 5.15057C61.2472 4.76231 61.3939 4.43324 61.6875 4.16335C61.9811 3.88873 62.3314 3.75142 62.7386 3.75142C63.1506 3.75142 63.5009 3.88873 63.7898 4.16335C64.0833 4.43324 64.2301 4.76231 64.2301 5.15057C64.2301 5.53409 64.0833 5.86316 63.7898 6.13778C63.5009 6.40767 63.1506 6.54261 62.7386 6.54261ZM70.7092 19.1918C69.8522 19.1918 69.0851 18.9716 68.408 18.5312C67.7309 18.0909 67.1959 17.4517 66.8029 16.6136C66.4099 15.7756 66.2134 14.7576 66.2134 13.5597C66.2134 12.3475 66.4123 11.3248 66.81 10.4915C67.2125 9.65341 67.7546 9.02131 68.4364 8.59517C69.1183 8.1643 69.8782 7.94886 70.7163 7.94886C71.3555 7.94886 71.881 8.05777 72.293 8.27557C72.7049 8.48864 73.0316 8.74669 73.2731 9.04972C73.5146 9.34801 73.7016 9.62973 73.8342 9.89489H73.9407V4.45455H76.5188V19H73.9904V17.2812H73.8342C73.7016 17.5464 73.5098 17.8281 73.2589 18.1264C73.0079 18.42 72.6765 18.6709 72.2646 18.8793C71.8526 19.0876 71.3342 19.1918 70.7092 19.1918ZM71.4265 17.0824C71.971 17.0824 72.435 16.9356 72.8185 16.642C73.2021 16.3437 73.4933 15.9295 73.6921 15.3991C73.891 14.8688 73.9904 14.2509 73.9904 13.5455C73.9904 12.84 73.891 12.2268 73.6921 11.706C73.498 11.1851 73.2092 10.7803 72.8256 10.4915C72.4469 10.2027 71.9805 10.0582 71.4265 10.0582C70.8536 10.0582 70.3754 10.2074 69.9918 10.5057C69.6083 10.804 69.3195 11.2159 69.1254 11.7415C68.9312 12.267 68.8342 12.8684 68.8342 13.5455C68.8342 14.2273 68.9312 14.8357 69.1254 15.3707C69.3242 15.901 69.6154 16.3201 69.9989 16.6278C70.3872 16.9309 70.863 17.0824 71.4265 17.0824ZM78.733 6.66335V4.45455H90.3381V6.66335H85.8423V19H83.2287V6.66335H78.733ZM91.3288 19V8.09091H93.8217V9.90909H93.9354C94.1342 9.27936 94.4751 8.79403 94.9581 8.45312C95.4458 8.10748 96.0021 7.93466 96.6271 7.93466C96.7692 7.93466 96.9278 7.94176 97.103 7.95597C97.2829 7.96544 97.4321 7.98201 97.5504 8.00568V10.3707C97.4415 10.3329 97.2687 10.2997 97.032 10.2713C96.8 10.2382 96.575 10.2216 96.3572 10.2216C95.8885 10.2216 95.4671 10.3234 95.093 10.527C94.7237 10.7259 94.4325 11.0028 94.2195 11.358C94.0064 11.7131 93.8999 12.1226 93.8999 12.5866V19H91.3288ZM102.202 19.2202C101.511 19.2202 100.888 19.0971 100.335 18.8509C99.7853 18.5999 99.3497 18.2306 99.0277 17.7429C98.7105 17.2552 98.5518 16.6539 98.5518 15.9389C98.5518 15.3234 98.6655 14.8144 98.8928 14.4119C99.12 14.0095 99.4302 13.6875 99.8232 13.446C100.216 13.2045 100.659 13.0223 101.151 12.8991C101.648 12.7713 102.162 12.679 102.692 12.6222C103.332 12.5559 103.85 12.4967 104.248 12.4446C104.646 12.3878 104.934 12.3026 105.114 12.1889C105.299 12.0705 105.391 11.8883 105.391 11.642V11.5994C105.391 11.0644 105.233 10.6501 104.915 10.3565C104.598 10.063 104.141 9.91619 103.545 9.91619C102.915 9.91619 102.415 10.0535 102.046 10.3281C101.682 10.6027 101.435 10.9271 101.308 11.3011L98.907 10.9602C99.0964 10.2973 99.4089 9.74337 99.8445 9.2983C100.28 8.84848 100.813 8.51231 101.442 8.28977C102.072 8.0625 102.768 7.94886 103.531 7.94886C104.056 7.94886 104.579 8.01042 105.1 8.13352C105.621 8.25663 106.097 8.46023 106.528 8.74432C106.959 9.02367 107.304 9.40483 107.565 9.88778C107.83 10.3707 107.962 10.9744 107.962 11.6989V19H105.491V17.5014H105.406C105.249 17.8045 105.029 18.0885 104.745 18.3537C104.466 18.6141 104.113 18.8248 103.687 18.9858C103.265 19.142 102.771 19.2202 102.202 19.2202ZM102.87 17.331C103.386 17.331 103.834 17.2292 104.212 17.0256C104.591 16.8172 104.882 16.5426 105.086 16.2017C105.294 15.8608 105.398 15.4891 105.398 15.0866V13.8011C105.318 13.8674 105.181 13.929 104.987 13.9858C104.797 14.0426 104.584 14.0923 104.347 14.1349C104.111 14.1776 103.876 14.2154 103.644 14.2486C103.412 14.2817 103.211 14.3101 103.04 14.3338C102.657 14.3859 102.314 14.4711 102.011 14.5895C101.708 14.7079 101.469 14.8736 101.293 15.0866C101.118 15.295 101.031 15.5649 101.031 15.8963C101.031 16.3698 101.203 16.7273 101.549 16.9688C101.895 17.2102 102.335 17.331 102.87 17.331ZM115.306 19.2131C114.217 19.2131 113.282 18.974 112.501 18.4957C111.724 18.0175 111.125 17.357 110.704 16.5142C110.287 15.6667 110.079 14.6913 110.079 13.5881C110.079 12.4801 110.292 11.5024 110.718 10.6548C111.144 9.80256 111.746 9.13968 112.522 8.66619C113.303 8.18797 114.227 7.94886 115.292 7.94886C116.177 7.94886 116.961 8.11222 117.643 8.43892C118.329 8.76089 118.876 9.2178 119.283 9.80966C119.691 10.3968 119.923 11.0833 119.979 11.8693H117.522C117.423 11.3437 117.186 10.9058 116.812 10.5554C116.442 10.2003 115.948 10.0227 115.327 10.0227C114.802 10.0227 114.34 10.1648 113.942 10.4489C113.545 10.7282 113.235 11.1307 113.012 11.6562C112.794 12.1818 112.685 12.8116 112.685 13.5455C112.685 14.2888 112.794 14.928 113.012 15.4631C113.23 15.9934 113.535 16.4029 113.928 16.6918C114.326 16.9759 114.792 17.1179 115.327 17.1179C115.706 17.1179 116.045 17.0469 116.343 16.9048C116.646 16.758 116.899 16.5473 117.103 16.2727C117.307 15.9981 117.446 15.6643 117.522 15.2713H119.979C119.918 16.0431 119.691 16.7273 119.298 17.3239C118.905 17.9157 118.37 18.3797 117.692 18.7159C117.015 19.0473 116.22 19.2131 115.306 19.2131ZM124.434 15.5767L124.427 12.473H124.839L128.76 8.09091H131.764L126.941 13.4602H126.409L124.434 15.5767ZM122.091 19V4.45455H124.662V19H122.091ZM128.937 19L125.386 14.0355L127.119 12.2244L132.012 19H128.937ZM137.858 19.2131C136.764 19.2131 135.819 18.9858 135.024 18.5312C134.233 18.072 133.625 17.4233 133.199 16.5852C132.772 15.7424 132.559 14.7505 132.559 13.6094C132.559 12.4872 132.772 11.5024 133.199 10.6548C133.629 9.80256 134.231 9.13968 135.002 8.66619C135.774 8.18797 136.681 7.94886 137.723 7.94886C138.395 7.94886 139.029 8.05777 139.626 8.27557C140.227 8.48864 140.758 8.82008 141.217 9.26989C141.681 9.7197 142.046 10.2926 142.311 10.9886C142.576 11.6799 142.708 12.5038 142.708 13.4602V14.2486H133.767V12.5156H140.244C140.239 12.0232 140.133 11.5852 139.924 11.2017C139.716 10.8134 139.425 10.508 139.051 10.2855C138.681 10.063 138.251 9.9517 137.758 9.9517C137.233 9.9517 136.771 10.0795 136.373 10.3352C135.975 10.5862 135.665 10.9176 135.443 11.3295C135.225 11.7367 135.114 12.1842 135.109 12.6719V14.1847C135.109 14.8191 135.225 15.3636 135.457 15.8182C135.689 16.268 136.013 16.6136 136.43 16.8551C136.847 17.0919 137.334 17.2102 137.893 17.2102C138.267 17.2102 138.606 17.1581 138.909 17.054C139.212 16.9451 139.475 16.7865 139.697 16.5781C139.92 16.3698 140.088 16.1117 140.201 15.804L142.602 16.0739C142.45 16.7083 142.162 17.2623 141.735 17.7358C141.314 18.2045 140.774 18.5691 140.116 18.8295C139.458 19.0852 138.705 19.2131 137.858 19.2131ZM144.884 19V8.09091H147.376V9.90909H147.49C147.689 9.27936 148.03 8.79403 148.513 8.45312C149 8.10748 149.557 7.93466 150.182 7.93466C150.324 7.93466 150.482 7.94176 150.658 7.95597C150.838 7.96544 150.987 7.98201 151.105 8.00568V10.3707C150.996 10.3329 150.823 10.2997 150.587 10.2713C150.355 10.2382 150.13 10.2216 149.912 10.2216C149.443 10.2216 149.022 10.3234 148.648 10.527C148.278 10.7259 147.987 11.0028 147.774 11.358C147.561 11.7131 147.455 12.1226 147.455 12.5866V19H144.884Z" fill="#FFFFFA"/>
<path d="M0 33V5H3.54204V33H0ZM10.2719 33L33 19L10.2719 5V33ZM13.814 26.2917V11.7083L25.6798 19L13.814 26.2917Z" fill="#FFFFFA"/>
</svg>
